<mxfile host="app.diagrams.net" agent="Mozilla/5.0 (Windows NT 10.0; Win64; x64) AppleWebKit/537.36 (KHTML, like Gecko) Chrome/129.0.0.0 Safari/537.36" version="24.7.16">
  <diagram name="Page-1" id="JrsxtNGEzkz7EmuCsESs">
    <mxGraphModel dx="1061" dy="580" grid="1" gridSize="10" guides="1" tooltips="1" connect="1" arrows="1" fold="1" page="1" pageScale="1" pageWidth="850" pageHeight="1100" math="0" shadow="0">
      <root>
        <mxCell id="0" />
        <mxCell id="1" parent="0" />
        <mxCell id="slm5BC4lL7aq9jStoZ59-33" style="edgeStyle=orthogonalEdgeStyle;rounded=0;orthogonalLoop=1;jettySize=auto;html=1;exitX=1;exitY=0.5;exitDx=0;exitDy=0;entryX=0;entryY=0.5;entryDx=0;entryDy=0;" edge="1" parent="1" source="slm5BC4lL7aq9jStoZ59-1" target="slm5BC4lL7aq9jStoZ59-32">
          <mxGeometry relative="1" as="geometry">
            <mxPoint x="380" y="215.42857142857144" as="targetPoint" />
          </mxGeometry>
        </mxCell>
        <mxCell id="slm5BC4lL7aq9jStoZ59-1" value="Users" style="rounded=1;whiteSpace=wrap;html=1;" vertex="1" parent="1">
          <mxGeometry x="160" y="180" width="140" height="70" as="geometry" />
        </mxCell>
        <mxCell id="slm5BC4lL7aq9jStoZ59-3" value="&lt;u&gt;User_id&lt;/u&gt;" style="ellipse;whiteSpace=wrap;html=1;" vertex="1" parent="1">
          <mxGeometry x="70" y="105" width="80" height="55" as="geometry" />
        </mxCell>
        <mxCell id="slm5BC4lL7aq9jStoZ59-4" value="Phone_number" style="ellipse;whiteSpace=wrap;html=1;" vertex="1" parent="1">
          <mxGeometry x="110" y="300" width="90" height="50" as="geometry" />
        </mxCell>
        <mxCell id="slm5BC4lL7aq9jStoZ59-5" value="Password" style="ellipse;whiteSpace=wrap;html=1;" vertex="1" parent="1">
          <mxGeometry x="30" y="200" width="80" height="55" as="geometry" />
        </mxCell>
        <mxCell id="slm5BC4lL7aq9jStoZ59-6" value="Role" style="ellipse;whiteSpace=wrap;html=1;" vertex="1" parent="1">
          <mxGeometry x="240" y="300" width="80" height="55" as="geometry" />
        </mxCell>
        <mxCell id="slm5BC4lL7aq9jStoZ59-7" value="Name" style="ellipse;whiteSpace=wrap;html=1;" vertex="1" parent="1">
          <mxGeometry x="180" y="70" width="80" height="55" as="geometry" />
        </mxCell>
        <mxCell id="slm5BC4lL7aq9jStoZ59-8" value="Email" style="ellipse;whiteSpace=wrap;html=1;" vertex="1" parent="1">
          <mxGeometry x="290" y="90" width="80" height="55" as="geometry" />
        </mxCell>
        <mxCell id="slm5BC4lL7aq9jStoZ59-9" value="" style="endArrow=none;html=1;rounded=0;" edge="1" parent="1">
          <mxGeometry width="50" height="50" relative="1" as="geometry">
            <mxPoint x="270" y="180" as="sourcePoint" />
            <mxPoint x="305" y="140" as="targetPoint" />
          </mxGeometry>
        </mxCell>
        <mxCell id="slm5BC4lL7aq9jStoZ59-11" value="" style="endArrow=none;html=1;rounded=0;" edge="1" parent="1">
          <mxGeometry width="50" height="50" relative="1" as="geometry">
            <mxPoint x="212.5" y="180" as="sourcePoint" />
            <mxPoint x="220" y="130" as="targetPoint" />
          </mxGeometry>
        </mxCell>
        <mxCell id="slm5BC4lL7aq9jStoZ59-12" value="" style="endArrow=none;html=1;rounded=0;exitX=0;exitY=0;exitDx=0;exitDy=0;" edge="1" parent="1" source="slm5BC4lL7aq9jStoZ59-1">
          <mxGeometry width="50" height="50" relative="1" as="geometry">
            <mxPoint x="130" y="200" as="sourcePoint" />
            <mxPoint x="137.5" y="150" as="targetPoint" />
          </mxGeometry>
        </mxCell>
        <mxCell id="slm5BC4lL7aq9jStoZ59-13" value="" style="endArrow=none;html=1;rounded=0;entryX=0.174;entryY=1.022;entryDx=0;entryDy=0;entryPerimeter=0;" edge="1" parent="1" target="slm5BC4lL7aq9jStoZ59-1">
          <mxGeometry width="50" height="50" relative="1" as="geometry">
            <mxPoint x="155" y="300" as="sourcePoint" />
            <mxPoint x="200" y="260" as="targetPoint" />
          </mxGeometry>
        </mxCell>
        <mxCell id="slm5BC4lL7aq9jStoZ59-15" value="" style="endArrow=none;html=1;rounded=0;exitX=0.5;exitY=0;exitDx=0;exitDy=0;entryX=0.5;entryY=1;entryDx=0;entryDy=0;" edge="1" parent="1" source="slm5BC4lL7aq9jStoZ59-6" target="slm5BC4lL7aq9jStoZ59-1">
          <mxGeometry width="50" height="50" relative="1" as="geometry">
            <mxPoint x="230" y="300" as="sourcePoint" />
            <mxPoint x="280" y="250" as="targetPoint" />
          </mxGeometry>
        </mxCell>
        <mxCell id="slm5BC4lL7aq9jStoZ59-17" value="" style="endArrow=none;html=1;rounded=0;exitX=0.991;exitY=0.643;exitDx=0;exitDy=0;exitPerimeter=0;" edge="1" parent="1" source="slm5BC4lL7aq9jStoZ59-5">
          <mxGeometry width="50" height="50" relative="1" as="geometry">
            <mxPoint x="100" y="226.97" as="sourcePoint" />
            <mxPoint x="160" y="226.97" as="targetPoint" />
          </mxGeometry>
        </mxCell>
        <mxCell id="slm5BC4lL7aq9jStoZ59-35" style="edgeStyle=orthogonalEdgeStyle;rounded=0;orthogonalLoop=1;jettySize=auto;html=1;exitX=0;exitY=0.5;exitDx=0;exitDy=0;entryX=1;entryY=0.5;entryDx=0;entryDy=0;" edge="1" parent="1" source="slm5BC4lL7aq9jStoZ59-19" target="slm5BC4lL7aq9jStoZ59-32">
          <mxGeometry relative="1" as="geometry" />
        </mxCell>
        <mxCell id="slm5BC4lL7aq9jStoZ59-19" value="Booking" style="rounded=1;whiteSpace=wrap;html=1;" vertex="1" parent="1">
          <mxGeometry x="550" y="180" width="140" height="70" as="geometry" />
        </mxCell>
        <mxCell id="slm5BC4lL7aq9jStoZ59-20" value="&lt;u&gt;User_id&lt;/u&gt;" style="ellipse;whiteSpace=wrap;html=1;" vertex="1" parent="1">
          <mxGeometry x="470" y="105" width="80" height="55" as="geometry" />
        </mxCell>
        <mxCell id="slm5BC4lL7aq9jStoZ59-21" value="Phone_number" style="ellipse;whiteSpace=wrap;html=1;" vertex="1" parent="1">
          <mxGeometry x="510" y="300" width="90" height="50" as="geometry" />
        </mxCell>
        <mxCell id="slm5BC4lL7aq9jStoZ59-22" value="Password" style="ellipse;whiteSpace=wrap;html=1;" vertex="1" parent="1">
          <mxGeometry x="750" y="187.5" width="80" height="55" as="geometry" />
        </mxCell>
        <mxCell id="slm5BC4lL7aq9jStoZ59-23" value="Role" style="ellipse;whiteSpace=wrap;html=1;" vertex="1" parent="1">
          <mxGeometry x="640" y="300" width="80" height="55" as="geometry" />
        </mxCell>
        <mxCell id="slm5BC4lL7aq9jStoZ59-24" value="Name" style="ellipse;whiteSpace=wrap;html=1;" vertex="1" parent="1">
          <mxGeometry x="580" y="70" width="80" height="55" as="geometry" />
        </mxCell>
        <mxCell id="slm5BC4lL7aq9jStoZ59-25" value="Email" style="ellipse;whiteSpace=wrap;html=1;" vertex="1" parent="1">
          <mxGeometry x="690" y="90" width="80" height="55" as="geometry" />
        </mxCell>
        <mxCell id="slm5BC4lL7aq9jStoZ59-26" value="" style="endArrow=none;html=1;rounded=0;" edge="1" parent="1">
          <mxGeometry width="50" height="50" relative="1" as="geometry">
            <mxPoint x="670" y="180" as="sourcePoint" />
            <mxPoint x="705" y="140" as="targetPoint" />
          </mxGeometry>
        </mxCell>
        <mxCell id="slm5BC4lL7aq9jStoZ59-27" value="" style="endArrow=none;html=1;rounded=0;" edge="1" parent="1">
          <mxGeometry width="50" height="50" relative="1" as="geometry">
            <mxPoint x="612.5" y="180" as="sourcePoint" />
            <mxPoint x="620" y="130" as="targetPoint" />
          </mxGeometry>
        </mxCell>
        <mxCell id="slm5BC4lL7aq9jStoZ59-28" value="" style="endArrow=none;html=1;rounded=0;exitX=0;exitY=0;exitDx=0;exitDy=0;" edge="1" parent="1" source="slm5BC4lL7aq9jStoZ59-19">
          <mxGeometry width="50" height="50" relative="1" as="geometry">
            <mxPoint x="530" y="200" as="sourcePoint" />
            <mxPoint x="537.5" y="150" as="targetPoint" />
          </mxGeometry>
        </mxCell>
        <mxCell id="slm5BC4lL7aq9jStoZ59-29" value="" style="endArrow=none;html=1;rounded=0;entryX=0.174;entryY=1.022;entryDx=0;entryDy=0;entryPerimeter=0;" edge="1" parent="1" target="slm5BC4lL7aq9jStoZ59-19">
          <mxGeometry width="50" height="50" relative="1" as="geometry">
            <mxPoint x="555" y="300" as="sourcePoint" />
            <mxPoint x="600" y="260" as="targetPoint" />
          </mxGeometry>
        </mxCell>
        <mxCell id="slm5BC4lL7aq9jStoZ59-30" value="" style="endArrow=none;html=1;rounded=0;exitX=0.5;exitY=0;exitDx=0;exitDy=0;entryX=0.5;entryY=1;entryDx=0;entryDy=0;" edge="1" parent="1" source="slm5BC4lL7aq9jStoZ59-23" target="slm5BC4lL7aq9jStoZ59-19">
          <mxGeometry width="50" height="50" relative="1" as="geometry">
            <mxPoint x="630" y="300" as="sourcePoint" />
            <mxPoint x="680" y="250" as="targetPoint" />
          </mxGeometry>
        </mxCell>
        <mxCell id="slm5BC4lL7aq9jStoZ59-31" value="" style="endArrow=none;html=1;rounded=0;exitX=0;exitY=0.5;exitDx=0;exitDy=0;entryX=1;entryY=0.5;entryDx=0;entryDy=0;" edge="1" parent="1" source="slm5BC4lL7aq9jStoZ59-22" target="slm5BC4lL7aq9jStoZ59-19">
          <mxGeometry width="50" height="50" relative="1" as="geometry">
            <mxPoint x="500" y="226.97" as="sourcePoint" />
            <mxPoint x="570" y="230" as="targetPoint" />
          </mxGeometry>
        </mxCell>
        <mxCell id="slm5BC4lL7aq9jStoZ59-32" value="Makes" style="rhombus;whiteSpace=wrap;html=1;" vertex="1" parent="1">
          <mxGeometry x="390" y="175" width="80" height="80" as="geometry" />
        </mxCell>
        <mxCell id="slm5BC4lL7aq9jStoZ59-36" value="M" style="text;html=1;align=center;verticalAlign=middle;resizable=0;points=[];autosize=1;strokeColor=none;fillColor=none;" vertex="1" parent="1">
          <mxGeometry x="510" y="180" width="30" height="30" as="geometry" />
        </mxCell>
        <mxCell id="slm5BC4lL7aq9jStoZ59-37" value="1" style="text;html=1;align=center;verticalAlign=middle;resizable=0;points=[];autosize=1;strokeColor=none;fillColor=none;" vertex="1" parent="1">
          <mxGeometry x="315" y="180" width="30" height="30" as="geometry" />
        </mxCell>
      </root>
    </mxGraphModel>
  </diagram>
</mxfile>
